<?xml version="1.0" encoding="UTF-8"?><svg id="a" xmlns="http://www.w3.org/2000/svg" viewBox="0 0 129.99 151.19"><path d="m99.37,26.27c1.35.78,2.66,1.65,3.83,2.55l-4.49-15.67c-.68-2.53-.62-4.98.89-7.6,3.03-5.24,9.61-7.08,14.69-4.15,2.54,1.46,4.2,3.66,4.87,6.42l10.39,40.39c.82,3.07.47,6.02-1,8.56-1.56,2.71-3.76,4.37-6.96,5.23l-40.08,11.03c-2.67.71-5.32.42-7.94-1.09-5.07-2.93-6.83-9.47-3.85-14.62,1.51-2.62,3.6-3.9,6.14-4.58l18.18-4.73c-1.46-1.18-3.27-2.34-5.22-3.46-21.31-12.3-47.8-4.71-60.54,17.37-12.35,21.4-5.11,48.7,16.29,61.05,21.48,12.4,48.83,5.07,61.18-16.32,3.37-5.84,9.55-7.56,15.05-4.39,5.67,3.27,7.43,9.59,4.06,15.43-18.51,32.05-59.46,43.03-91.43,24.57C1.46,123.78-9.51,82.82,8.99,50.77S67.49,7.86,99.37,26.27Z"/></svg>