<?xml version="1.0" encoding="UTF-8"?>
<svg id="Layer_1" data-name="Layer 1" xmlns="http://www.w3.org/2000/svg" xmlns:xlink="http://www.w3.org/1999/xlink" version="1.1" viewBox="0 0 1014.68 825">
  <defs>
    <style>
      .cls-1 {
        font-size: 28px;
      }

      .cls-1, .cls-2, .cls-3, .cls-4, .cls-5, .cls-6, .cls-7 {
        fill: #000;
      }

      .cls-1, .cls-3, .cls-6 {
        font-family: Roboto-Light, Roboto;
        font-weight: 300;
      }

      .cls-8 {
        fill: #396;
      }

      .cls-8, .cls-9, .cls-10, .cls-11, .cls-12 {
        stroke-width: 0px;
      }

      .cls-13 {
        stroke: #fff;
      }

      .cls-13, .cls-9, .cls-14, .cls-15, .cls-16, .cls-17, .cls-18 {
        fill: none;
      }

      .cls-13, .cls-14, .cls-16, .cls-18 {
        stroke-linejoin: round;
      }

      .cls-13, .cls-14, .cls-17 {
        stroke-width: 1.83px;
      }

      .cls-19 {
        clip-path: url(#clippath);
      }

      .cls-14, .cls-17 {
        stroke: #262626;
      }

      .cls-15 {
        stroke: #349966;
        stroke-width: 5px;
      }

      .cls-2 {
        font-size: 38px;
      }

      .cls-2, .cls-4, .cls-5, .cls-7 {
        font-weight: 700;
      }

      .cls-2, .cls-5, .cls-7 {
        font-family: Roboto-Bold, Roboto;
      }

      .cls-3 {
        font-size: 29px;
      }

      .cls-20 {
        clip-path: url(#clippath-1);
      }

      .cls-21 {
        clip-path: url(#clippath-4);
      }

      .cls-22 {
        clip-path: url(#clippath-3);
      }

      .cls-23 {
        clip-path: url(#clippath-2);
      }

      .cls-24 {
        clip-path: url(#clippath-7);
      }

      .cls-25 {
        clip-path: url(#clippath-8);
      }

      .cls-26 {
        clip-path: url(#clippath-6);
      }

      .cls-27 {
        clip-path: url(#clippath-5);
      }

      .cls-28 {
        clip-path: url(#clippath-9);
      }

      .cls-16 {
        stroke: #396;
      }

      .cls-16, .cls-18 {
        stroke-linecap: round;
        stroke-width: 3.67px;
      }

      .cls-10 {
        fill: #349966;
      }

      .cls-17 {
        stroke-linecap: square;
        stroke-miterlimit: 10;
      }

      .cls-29 {
        clip-path: url(#clippath-14);
      }

      .cls-30 {
        clip-path: url(#clippath-13);
      }

      .cls-31 {
        clip-path: url(#clippath-12);
      }

      .cls-32 {
        clip-path: url(#clippath-10);
      }

      .cls-33 {
        clip-path: url(#clippath-15);
      }

      .cls-34 {
        clip-path: url(#clippath-17);
      }

      .cls-35 {
        clip-path: url(#clippath-16);
      }

      .cls-36 {
        clip-path: url(#clippath-11);
      }

      .cls-4 {
        font-family: HelveticaNeue-Bold, 'Helvetica Neue';
      }

      .cls-4, .cls-5, .cls-7 {
        font-size: 30px;
      }

      .cls-5 {
        letter-spacing: -.02em;
      }

      .cls-11 {
        fill: #fd5e53;
      }

      .cls-12 {
        fill: #262626;
      }

      .cls-18 {
        stroke: #fd5e53;
      }

      .cls-6 {
        font-size: 24px;
      }
    </style>
    <clipPath id="clippath">
      <rect class="cls-9" x="216.26" y="35.3" width="745.25" height="675.84"/>
    </clipPath>
    <clipPath id="clippath-1">
      <rect class="cls-9" x="245.03" y="580.91" width="34.72" height="34.72"/>
    </clipPath>
    <clipPath id="clippath-2">
      <rect class="cls-9" x="313.25" y="530.05" width="34.72" height="34.72"/>
    </clipPath>
    <clipPath id="clippath-3">
      <rect class="cls-9" x="381.46" y="496.88" width="34.72" height="34.72"/>
    </clipPath>
    <clipPath id="clippath-4">
      <rect class="cls-9" x="449.68" y="459.24" width="34.72" height="34.72"/>
    </clipPath>
    <clipPath id="clippath-5">
      <rect class="cls-9" x="517.9" y="409.73" width="34.72" height="34.72"/>
    </clipPath>
    <clipPath id="clippath-6">
      <rect class="cls-9" x="216.26" y="35.3" width="745.25" height="675.84"/>
    </clipPath>
    <clipPath id="clippath-7">
      <rect class="cls-9" x="313.25" y="377.82" width="34.72" height="34.72"/>
    </clipPath>
    <clipPath id="clippath-8">
      <rect class="cls-9" x="381.46" y="420.99" width="34.72" height="34.72"/>
    </clipPath>
    <clipPath id="clippath-9">
      <rect class="cls-9" x="449.68" y="379.64" width="34.72" height="34.72"/>
    </clipPath>
    <clipPath id="clippath-10">
      <rect class="cls-9" x="517.9" y="337.97" width="34.72" height="34.72"/>
    </clipPath>
    <clipPath id="clippath-11">
      <rect class="cls-9" x="586.11" y="288.35" width="34.72" height="34.72"/>
    </clipPath>
    <clipPath id="clippath-12">
      <rect class="cls-9" x="654.33" y="243.1" width="34.72" height="34.72"/>
    </clipPath>
    <clipPath id="clippath-13">
      <rect class="cls-9" x="722.55" y="195.37" width="34.72" height="34.72"/>
    </clipPath>
    <clipPath id="clippath-14">
      <rect class="cls-9" x="790.76" y="158.21" width="34.72" height="34.72"/>
    </clipPath>
    <clipPath id="clippath-15">
      <rect class="cls-9" x="858.98" y="133.93" width="34.72" height="34.72"/>
    </clipPath>
    <clipPath id="clippath-16">
      <rect class="cls-9" x="523.99" y="438.4" width="22.4" height="256.23"/>
    </clipPath>
    <clipPath id="clippath-17">
      <rect class="cls-9" x="-395" y="-125.83" width="1920" height="1080"/>
    </clipPath>
  </defs>
  <text class="cls-5" transform="translate(835.94 403.95)"><tspan x="0" y="0">Waymax</tspan></text>
  <text class="cls-7" transform="translate(829.38 446.84)"><tspan x="0" y="0">GPUDrive</tspan></text>
  <rect class="cls-9" x="-395" y="-125.83" width="1920" height="1080"/>
  <g class="cls-19">
    <path class="cls-12" d="M262.39,711.14v-15.43,15.43Z"/>
    <line class="cls-14" x1="262.39" y1="695.71" x2="262.39" y2="711.14"/>
    <path class="cls-12" d="M489,711.14v-15.43,15.43Z"/>
    <line class="cls-14" x1="489" y1="695.71" x2="489" y2="711.14"/>
    <path class="cls-12" d="M715.61,711.14v-15.43,15.43Z"/>
    <line class="cls-14" x1="715.61" y1="695.71" x2="715.61" y2="711.14"/>
    <path class="cls-12" d="M240.43,705.99v-10.29,10.29Z"/>
    <line class="cls-14" x1="240.43" y1="695.71" x2="240.43" y2="705.99"/>
    <path class="cls-12" d="M330.6,705.99v-10.29,10.29Z"/>
    <line class="cls-14" x1="330.6" y1="695.71" x2="330.6" y2="705.99"/>
    <path class="cls-12" d="M398.82,705.99v-10.29,10.29Z"/>
    <line class="cls-14" x1="398.82" y1="695.71" x2="398.82" y2="705.99"/>
    <path class="cls-12" d="M438.73,705.99v-10.29,10.29Z"/>
    <line class="cls-14" x1="438.73" y1="695.71" x2="438.73" y2="705.99"/>
    <path class="cls-12" d="M467.04,705.99v-10.29,10.29Z"/>
    <line class="cls-14" x1="467.04" y1="695.71" x2="467.04" y2="705.99"/>
    <path class="cls-12" d="M557.22,705.99v-10.29,10.29Z"/>
    <line class="cls-14" x1="557.22" y1="695.71" x2="557.22" y2="705.99"/>
    <path class="cls-12" d="M625.43,705.99v-10.29,10.29Z"/>
    <line class="cls-14" x1="625.43" y1="695.71" x2="625.43" y2="705.99"/>
    <path class="cls-12" d="M665.34,705.99v-10.29,10.29Z"/>
    <line class="cls-14" x1="665.34" y1="695.71" x2="665.34" y2="705.99"/>
    <path class="cls-12" d="M693.65,705.99v-10.29,10.29Z"/>
    <line class="cls-14" x1="693.65" y1="695.71" x2="693.65" y2="705.99"/>
    <path class="cls-12" d="M783.83,705.99v-10.29,10.29Z"/>
    <line class="cls-14" x1="783.83" y1="695.71" x2="783.83" y2="705.99"/>
    <path class="cls-12" d="M852.05,705.99v-10.29,10.29Z"/>
    <line class="cls-14" x1="852.05" y1="695.71" x2="852.05" y2="705.99"/>
    <path class="cls-12" d="M891.95,705.99v-10.29,10.29Z"/>
    <line class="cls-14" x1="891.95" y1="695.71" x2="891.95" y2="705.99"/>
    <path class="cls-12" d="M216.26,575.73h15.43-15.43Z"/>
    <line class="cls-14" x1="231.69" y1="575.73" x2="216.26" y2="575.73"/>
    <path class="cls-12" d="M216.26,395.85h15.43-15.43Z"/>
    <line class="cls-14" x1="231.69" y1="395.85" x2="216.26" y2="395.85"/>
    <path class="cls-12" d="M216.26,215.96h15.43-15.43Z"/>
    <line class="cls-14" x1="231.69" y1="215.96" x2="216.26" y2="215.96"/>
    <path class="cls-12" d="M221.4,647.31h10.29-10.29Z"/>
    <line class="cls-14" x1="231.69" y1="647.31" x2="221.4" y2="647.31"/>
    <path class="cls-12" d="M221.4,615.63h10.29-10.29Z"/>
    <line class="cls-14" x1="231.69" y1="615.63" x2="221.4" y2="615.63"/>
    <path class="cls-12" d="M221.4,593.16h10.29-10.29Z"/>
    <line class="cls-14" x1="231.69" y1="593.16" x2="221.4" y2="593.16"/>
    <path class="cls-12" d="M221.4,521.58h10.29-10.29Z"/>
    <line class="cls-14" x1="231.69" y1="521.58" x2="221.4" y2="521.58"/>
    <path class="cls-12" d="M221.4,467.43h10.29-10.29Z"/>
    <line class="cls-14" x1="231.69" y1="467.43" x2="221.4" y2="467.43"/>
    <path class="cls-12" d="M221.4,435.75h10.29-10.29Z"/>
    <line class="cls-14" x1="231.69" y1="435.75" x2="221.4" y2="435.75"/>
    <path class="cls-12" d="M221.4,413.28h10.29-10.29Z"/>
    <line class="cls-14" x1="231.69" y1="413.28" x2="221.4" y2="413.28"/>
    <path class="cls-12" d="M221.4,341.7h10.29-10.29Z"/>
    <line class="cls-14" x1="231.69" y1="341.7" x2="221.4" y2="341.7"/>
    <path class="cls-12" d="M221.4,287.55h10.29-10.29Z"/>
    <line class="cls-14" x1="231.69" y1="287.55" x2="221.4" y2="287.55"/>
    <path class="cls-12" d="M221.4,255.87h10.29-10.29Z"/>
    <line class="cls-14" x1="231.69" y1="255.87" x2="221.4" y2="255.87"/>
    <path class="cls-12" d="M221.4,233.4h10.29-10.29Z"/>
    <line class="cls-14" x1="231.69" y1="233.4" x2="221.4" y2="233.4"/>
    <path class="cls-12" d="M221.4,161.81h10.29-10.29Z"/>
    <line class="cls-14" x1="231.69" y1="161.81" x2="221.4" y2="161.81"/>
    <polyline class="cls-16" points="262.39 598.28 330.6 547.41 398.82 514.24 467.04 476.6 535.26 427.09"/>
  </g>
  <g class="cls-20">
    <path class="cls-8" d="M262.39,605.99c2.05,0,4.01-.81,5.46-2.26,1.45-1.45,2.26-3.41,2.26-5.46s-.81-4.01-2.26-5.46c-1.45-1.45-3.41-2.26-5.46-2.26s-4.01.81-5.46,2.26c-1.45,1.45-2.26,3.41-2.26,5.46s.81,4.01,2.26,5.46c1.45,1.45,3.41,2.26,5.46,2.26"/>
    <path class="cls-13" d="M262.39,605.99c2.05,0,4.01-.81,5.46-2.26,1.45-1.45,2.26-3.41,2.26-5.46s-.81-4.01-2.26-5.46c-1.45-1.45-3.41-2.26-5.46-2.26s-4.01.81-5.46,2.26c-1.45,1.45-2.26,3.41-2.26,5.46s.81,4.01,2.26,5.46c1.45,1.45,3.41,2.26,5.46,2.26Z"/>
  </g>
  <g class="cls-23">
    <path class="cls-8" d="M330.6,555.12c2.05,0,4.01-.81,5.46-2.26,1.45-1.45,2.26-3.41,2.26-5.46s-.81-4.01-2.26-5.46c-1.45-1.45-3.41-2.26-5.46-2.26s-4.01.81-5.46,2.26c-1.45,1.45-2.26,3.41-2.26,5.46s.81,4.01,2.26,5.46c1.45,1.45,3.41,2.26,5.46,2.26"/>
    <path class="cls-13" d="M330.6,555.12c2.05,0,4.01-.81,5.46-2.26,1.45-1.45,2.26-3.41,2.26-5.46s-.81-4.01-2.26-5.46-3.41-2.26-5.46-2.26-4.01.81-5.46,2.26-2.26,3.41-2.26,5.46.81,4.01,2.26,5.46c1.45,1.45,3.41,2.26,5.46,2.26Z"/>
  </g>
  <g class="cls-22">
    <path class="cls-8" d="M398.82,521.96c2.05,0,4.01-.81,5.46-2.26,1.45-1.45,2.26-3.41,2.26-5.46s-.81-4.01-2.26-5.46c-1.45-1.45-3.41-2.26-5.46-2.26s-4.01.81-5.46,2.26c-1.45,1.45-2.26,3.41-2.26,5.46s.81,4.01,2.26,5.46c1.45,1.45,3.41,2.26,5.46,2.26"/>
    <path class="cls-13" d="M398.82,521.96c2.05,0,4.01-.81,5.46-2.26,1.45-1.45,2.26-3.41,2.26-5.46s-.81-4.01-2.26-5.46c-1.45-1.45-3.41-2.26-5.46-2.26s-4.01.81-5.46,2.26c-1.45,1.45-2.26,3.41-2.26,5.46s.81,4.01,2.26,5.46c1.45,1.45,3.41,2.26,5.46,2.26Z"/>
  </g>
  <g class="cls-21">
    <path class="cls-8" d="M467.04,484.32c2.05,0,4.01-.81,5.46-2.26,1.45-1.45,2.26-3.41,2.26-5.46s-.81-4.01-2.26-5.46c-1.45-1.45-3.41-2.26-5.46-2.26s-4.01.81-5.46,2.26c-1.45,1.45-2.26,3.41-2.26,5.46s.81,4.01,2.26,5.46c1.45,1.45,3.41,2.26,5.46,2.26"/>
    <path class="cls-13" d="M467.04,484.32c2.05,0,4.01-.81,5.46-2.26,1.45-1.45,2.26-3.41,2.26-5.46s-.81-4.01-2.26-5.46-3.41-2.26-5.46-2.26-4.01.81-5.46,2.26-2.26,3.41-2.26,5.46.81,4.01,2.26,5.46c1.45,1.45,3.41,2.26,5.46,2.26Z"/>
  </g>
  <g class="cls-27">
    <path class="cls-8" d="M535.26,434.8c2.05,0,4.01-.81,5.46-2.26,1.45-1.45,2.26-3.41,2.26-5.46s-.81-4.01-2.26-5.46c-1.45-1.45-3.41-2.26-5.46-2.26s-4.01.81-5.46,2.26c-1.45,1.45-2.26,3.41-2.26,5.46s.81,4.01,2.26,5.46c1.45,1.45,3.41,2.26,5.46,2.26"/>
    <path class="cls-13" d="M535.26,434.8c2.05,0,4.01-.81,5.46-2.26,1.45-1.45,2.26-3.41,2.26-5.46s-.81-4.01-2.26-5.46-3.41-2.26-5.46-2.26-4.01.81-5.46,2.26-2.26,3.41-2.26,5.46.81,4.01,2.26,5.46c1.45,1.45,3.41,2.26,5.46,2.26Z"/>
  </g>
  <g class="cls-26">
    <polyline class="cls-18" points="330.6 395.18 398.82 438.35 467.04 397 535.26 355.33 603.47 305.71 671.69 260.46 739.91 212.73 808.12 175.57 876.34 151.29"/>
  </g>
  <g class="cls-24">
    <path class="cls-11" d="M330.6,402.9c2.05,0,4.01-.81,5.46-2.26,1.45-1.45,2.26-3.41,2.26-5.46s-.81-4.01-2.26-5.46c-1.45-1.45-3.41-2.26-5.46-2.26s-4.01.81-5.46,2.26c-1.45,1.45-2.26,3.41-2.26,5.46s.81,4.01,2.26,5.46c1.45,1.45,3.41,2.26,5.46,2.26"/>
    <path class="cls-13" d="M330.6,402.9c2.05,0,4.01-.81,5.46-2.26,1.45-1.45,2.26-3.41,2.26-5.46s-.81-4.01-2.26-5.46c-1.45-1.45-3.41-2.26-5.46-2.26s-4.01.81-5.46,2.26c-1.45,1.45-2.26,3.41-2.26,5.46s.81,4.01,2.26,5.46c1.45,1.45,3.41,2.26,5.46,2.26Z"/>
  </g>
  <g class="cls-25">
    <path class="cls-11" d="M398.82,446.07c2.05,0,4.01-.81,5.46-2.26,1.45-1.45,2.26-3.41,2.26-5.46s-.81-4.01-2.26-5.46c-1.45-1.45-3.41-2.26-5.46-2.26s-4.01.81-5.46,2.26c-1.45,1.45-2.26,3.41-2.26,5.46s.81,4.01,2.26,5.46c1.45,1.45,3.41,2.26,5.46,2.26"/>
    <path class="cls-13" d="M398.82,446.07c2.05,0,4.01-.81,5.46-2.26,1.45-1.45,2.26-3.41,2.26-5.46s-.81-4.01-2.26-5.46c-1.45-1.45-3.41-2.26-5.46-2.26s-4.01.81-5.46,2.26c-1.45,1.45-2.26,3.41-2.26,5.46s.81,4.01,2.26,5.46c1.45,1.45,3.41,2.26,5.46,2.26Z"/>
  </g>
  <g class="cls-28">
    <path class="cls-11" d="M467.04,404.72c2.05,0,4.01-.81,5.46-2.26,1.45-1.45,2.26-3.41,2.26-5.46s-.81-4.01-2.26-5.46c-1.45-1.45-3.41-2.26-5.46-2.26s-4.01.81-5.46,2.26c-1.45,1.45-2.26,3.41-2.26,5.46s.81,4.01,2.26,5.46c1.45,1.45,3.41,2.26,5.46,2.26"/>
    <path class="cls-13" d="M467.04,404.72c2.05,0,4.01-.81,5.46-2.26,1.45-1.45,2.26-3.41,2.26-5.46s-.81-4.01-2.26-5.46c-1.45-1.45-3.41-2.26-5.46-2.26s-4.01.81-5.46,2.26c-1.45,1.45-2.26,3.41-2.26,5.46s.81,4.01,2.26,5.46c1.45,1.45,3.41,2.26,5.46,2.26Z"/>
  </g>
  <g class="cls-32">
    <path class="cls-11" d="M535.26,363.05c2.05,0,4.01-.81,5.46-2.26,1.45-1.45,2.26-3.41,2.26-5.46s-.81-4.01-2.26-5.46c-1.45-1.45-3.41-2.26-5.46-2.26s-4.01.81-5.46,2.26c-1.45,1.45-2.26,3.41-2.26,5.46s.81,4.01,2.26,5.46c1.45,1.45,3.41,2.26,5.46,2.26"/>
    <path class="cls-13" d="M535.26,363.05c2.05,0,4.01-.81,5.46-2.26,1.45-1.45,2.26-3.41,2.26-5.46s-.81-4.01-2.26-5.46c-1.45-1.45-3.41-2.26-5.46-2.26s-4.01.81-5.46,2.26c-1.45,1.45-2.26,3.41-2.26,5.46s.81,4.01,2.26,5.46c1.45,1.45,3.41,2.26,5.46,2.26Z"/>
  </g>
  <g class="cls-36">
    <path class="cls-11" d="M603.47,313.43c2.05,0,4.01-.81,5.46-2.26,1.45-1.45,2.26-3.41,2.26-5.46s-.81-4.01-2.26-5.46c-1.45-1.45-3.41-2.26-5.46-2.26s-4.01.81-5.46,2.26c-1.45,1.45-2.26,3.41-2.26,5.46s.81,4.01,2.26,5.46c1.45,1.45,3.41,2.26,5.46,2.26"/>
    <path class="cls-13" d="M603.47,313.43c2.05,0,4.01-.81,5.46-2.26,1.45-1.45,2.26-3.41,2.26-5.46s-.81-4.01-2.26-5.46c-1.45-1.45-3.41-2.26-5.46-2.26s-4.01.81-5.46,2.26c-1.45,1.45-2.26,3.41-2.26,5.46s.81,4.01,2.26,5.46c1.45,1.45,3.41,2.26,5.46,2.26Z"/>
  </g>
  <g class="cls-31">
    <path class="cls-11" d="M671.69,268.17c2.05,0,4.01-.81,5.46-2.26,1.45-1.45,2.26-3.41,2.26-5.46s-.81-4.01-2.26-5.46c-1.45-1.45-3.41-2.26-5.46-2.26s-4.01.81-5.46,2.26c-1.45,1.45-2.26,3.41-2.26,5.46s.81,4.01,2.26,5.46c1.45,1.45,3.41,2.26,5.46,2.26"/>
    <path class="cls-13" d="M671.69,268.17c2.05,0,4.01-.81,5.46-2.26,1.45-1.45,2.26-3.41,2.26-5.46s-.81-4.01-2.26-5.46c-1.45-1.45-3.41-2.26-5.46-2.26s-4.01.81-5.46,2.26c-1.45,1.45-2.26,3.41-2.26,5.46s.81,4.01,2.26,5.46c1.45,1.45,3.41,2.26,5.46,2.26Z"/>
  </g>
  <g class="cls-30">
    <path class="cls-11" d="M739.91,220.45c2.05,0,4.01-.81,5.46-2.26,1.45-1.45,2.26-3.41,2.26-5.46s-.81-4.01-2.26-5.46c-1.45-1.45-3.41-2.26-5.46-2.26s-4.01.81-5.46,2.26c-1.45,1.45-2.26,3.41-2.26,5.46s.81,4.01,2.26,5.46c1.45,1.45,3.41,2.26,5.46,2.26"/>
    <path class="cls-13" d="M739.91,220.45c2.05,0,4.01-.81,5.46-2.26,1.45-1.45,2.26-3.41,2.26-5.46s-.81-4.01-2.26-5.46c-1.45-1.45-3.41-2.26-5.46-2.26s-4.01.81-5.46,2.26c-1.45,1.45-2.26,3.41-2.26,5.46s.81,4.01,2.26,5.46c1.45,1.45,3.41,2.26,5.46,2.26Z"/>
  </g>
  <g class="cls-29">
    <path class="cls-11" d="M808.12,183.28c2.05,0,4.01-.81,5.46-2.26,1.45-1.45,2.26-3.41,2.26-5.46s-.81-4.01-2.26-5.46c-1.45-1.45-3.41-2.26-5.46-2.26s-4.01.81-5.46,2.26c-1.45,1.45-2.26,3.41-2.26,5.46s.81,4.01,2.26,5.46c1.45,1.45,3.41,2.26,5.46,2.26"/>
    <path class="cls-13" d="M808.12,183.28c2.05,0,4.01-.81,5.46-2.26,1.45-1.45,2.26-3.41,2.26-5.46s-.81-4.01-2.26-5.46c-1.45-1.45-3.41-2.26-5.46-2.26s-4.01.81-5.46,2.26c-1.45,1.45-2.26,3.41-2.26,5.46s.81,4.01,2.26,5.46c1.45,1.45,3.41,2.26,5.46,2.26Z"/>
  </g>
  <g class="cls-33">
    <path class="cls-11" d="M876.34,159.01c2.05,0,4.01-.81,5.46-2.26,1.45-1.45,2.26-3.41,2.26-5.46s-.81-4.01-2.26-5.46c-1.45-1.45-3.41-2.26-5.46-2.26s-4.01.81-5.46,2.26c-1.45,1.45-2.26,3.41-2.26,5.46s.81,4.01,2.26,5.46c1.45,1.45,3.41,2.26,5.46,2.26"/>
    <path class="cls-13" d="M876.34,159.01c2.05,0,4.01-.81,5.46-2.26,1.45-1.45,2.26-3.41,2.26-5.46s-.81-4.01-2.26-5.46c-1.45-1.45-3.41-2.26-5.46-2.26s-4.01.81-5.46,2.26c-1.45,1.45-2.26,3.41-2.26,5.46s.81,4.01,2.26,5.46c1.45,1.45,3.41,2.26,5.46,2.26Z"/>
  </g>
  <line class="cls-17" x1="231.69" y1="695.71" x2="231.69" y2="36.21"/>
  <line class="cls-17" x1="231.69" y1="695.71" x2="942.18" y2="695.71"/>
  <polyline class="cls-16" points="768.24 397.14 793.96 397.14 819.68 397.14"/>
  <polyline class="cls-18" points="768.24 434.88 793.96 434.88 819.68 434.88"/>
  <path class="cls-11" d="M793.96,442.59c2.05,0,4.01-.81,5.46-2.26,1.45-1.45,2.26-3.41,2.26-5.46s-.81-4.01-2.26-5.46c-1.45-1.45-3.41-2.26-5.46-2.26s-4.01.81-5.46,2.26c-1.45,1.45-2.26,3.41-2.26,5.46s.81,4.01,2.26,5.46c1.45,1.45,3.41,2.26,5.46,2.26"/>
  <path class="cls-8" d="M793.96,404.95c2.05,0,4.01-.81,5.46-2.26,1.45-1.45,2.26-3.41,2.26-5.46s-.81-4.01-2.26-5.46c-1.45-1.45-3.41-2.26-5.46-2.26s-4.01.81-5.46,2.26c-1.45,1.45-2.26,3.41-2.26,5.46s.81,4.01,2.26,5.46c1.45,1.45,3.41,2.26,5.46,2.26"/>
  <line class="cls-14" x1="942.18" y1="695.69" x2="942.18" y2="711.12"/>
  <line class="cls-14" x1="783.79" y1="695.69" x2="783.79" y2="705.98"/>
  <line class="cls-14" x1="852" y1="695.69" x2="852" y2="705.98"/>
  <line class="cls-14" x1="891.91" y1="695.69" x2="891.91" y2="705.98"/>
  <line class="cls-14" x1="920.22" y1="695.69" x2="920.22" y2="705.98"/>
  <line class="cls-14" x1="231.69" y1="216.24" x2="216.26" y2="216.24"/>
  <line class="cls-14" x1="231.69" y1="36.36" x2="216.26" y2="36.36"/>
  <line class="cls-14" x1="231.69" y1="162.09" x2="221.4" y2="162.09"/>
  <line class="cls-14" x1="231.69" y1="107.94" x2="221.4" y2="107.94"/>
  <line class="cls-14" x1="231.69" y1="76.27" x2="221.4" y2="76.27"/>
  <line class="cls-14" x1="231.69" y1="53.8" x2="221.4" y2="53.8"/>
  <rect class="cls-9" x="216.26" y="35.3" width="745.25" height="675.84"/>
  <text class="cls-6" transform="translate(193.01 579.33)"><tspan x="0" y="0">0</tspan></text>
  <text class="cls-6" transform="translate(193.01 400.35)"><tspan x="0" y="0">1</tspan></text>
  <text class="cls-6" transform="translate(193.01 221.36)"><tspan x="0" y="0">2</tspan></text>
  <text class="cls-6" transform="translate(193.01 42.38)"><tspan x="0" y="0">3</tspan></text>
  <text class="cls-4" transform="translate(895.5 158.59)"><tspan x="0" y="0">2.3M</tspan></text>
  <text class="cls-2" transform="translate(79.73 453.35) rotate(-90)"><tspan x="0" y="0">Throughput</tspan></text>
  <text class="cls-3" transform="translate(115.93 522.15) rotate(-90)"><tspan x="0" y="0">(Agent Steps Per Second)</tspan></text>
  <text class="cls-2" transform="translate(303.25 795.29)"><tspan x="0" y="0">Number of Parallel Environments</tspan></text>
  <text class="cls-4" transform="translate(554.38 435.44)"><tspan x="0" y="0">65K</tspan></text>
  <rect class="cls-9" x="-395" y="-125.83" width="1920" height="1080"/>
  <text class="cls-1" transform="translate(159.78 53.62)"><tspan x="0" y="0">10</tspan></text>
  <text class="cls-1" transform="translate(159.78 235.62)"><tspan x="0" y="0">10</tspan></text>
  <text class="cls-1" transform="translate(159.78 413.62)"><tspan x="0" y="0">10</tspan></text>
  <text class="cls-1" transform="translate(159.78 593.62)"><tspan x="0" y="0">10</tspan></text>
  <text class="cls-6" transform="translate(270.96 728.31)"><tspan x="0" y="0">0</tspan></text>
  <text class="cls-1" transform="translate(237.73 742.6)"><tspan x="0" y="0">10</tspan></text>
  <g class="cls-35">
    <g class="cls-34">
      <polyline class="cls-15" points="535.19 675.73 535.19 673.23 535.19 439.4"/>
      <polygon class="cls-10" points="524.99 673.23 535.19 693.63 545.39 673.23 524.99 673.23"/>
    </g>
  </g>
  <text class="cls-4" transform="translate(545.15 672.67)"><tspan x="0" y="0">16</tspan></text>
  <text class="cls-4" transform="translate(350.15 664.44)"><tspan x="0" y="0"> </tspan></text>
  <text class="cls-4" transform="translate(586.85 672.67)"><tspan x="0" y="0">envs</tspan></text>
  <rect class="cls-9" x="307.35" y="625.88" width="157.18" height="54.88"/>
  <text class="cls-6" transform="translate(498.96 728.31)"><tspan x="0" y="0">1</tspan></text>
  <text class="cls-1" transform="translate(465.73 742.6)"><tspan x="0" y="0">10</tspan></text>
  <text class="cls-6" transform="translate(725.96 728.31)"><tspan x="0" y="0">2</tspan></text>
  <text class="cls-1" transform="translate(692.73 742.6)"><tspan x="0" y="0">10</tspan></text>
  <text class="cls-6" transform="translate(951.96 728.31)"><tspan x="0" y="0">3</tspan></text>
  <text class="cls-1" transform="translate(918.73 742.6)"><tspan x="0" y="0">10</tspan></text>
</svg>